<svg width="11" height="10" viewBox="0 0 11 10" fill="none" xmlns="http://www.w3.org/2000/svg">
<path d="M6.37878 8.68679C6.58735 8.47822 6.56649 8.16536 6.37878 7.95679L3.85509 5.55825H9.86188C10.133 5.55825 10.3624 5.34968 10.3624 5.05769V4.39026C10.3624 4.11913 10.133 3.8897 9.86188 3.8897H3.85509L6.37878 1.51201C6.56649 1.30344 6.58735 0.99059 6.37878 0.782021L5.91993 0.323169C5.73221 0.135457 5.3985 0.135457 5.21079 0.323169L1.16455 4.39026C0.955984 4.57798 0.955984 4.89083 1.16455 5.07854L5.21079 9.14564C5.3985 9.33335 5.71136 9.33335 5.91993 9.14564L6.37878 8.68679Z" fill="#001E61"/>
</svg>
