<svg width="49" height="34" viewBox="0 0 49 34" fill="none" xmlns="http://www.w3.org/2000/svg">
<path d="M8.60718 5.04191H5.02272C3.97725 5.04191 3.23048 5.86335 3.23048 6.83414V14.6005C1.88631 14.6005 0.840837 15.7206 0.840837 16.9901C0.840837 18.3343 1.88631 19.3798 3.15581 19.3798L3.23048 27.1461C3.23048 28.1916 3.97725 28.9384 5.02272 28.9384H8.60718C9.57798 28.9384 10.3994 28.1916 10.3994 27.1461V6.83414C10.3994 5.86335 9.57798 5.04191 8.60718 5.04191ZM34.8933 0.26262H31.3088C30.2633 0.26262 29.5166 1.08406 29.5166 2.05485V14.6005H19.958V2.05485C19.958 1.08406 19.1366 0.26262 18.1658 0.26262H14.5813C13.5358 0.26262 12.7891 1.08406 12.7891 2.05485V31.9254C12.7891 32.9709 13.5358 33.7176 14.5813 33.7176H18.1658C19.1366 33.7176 19.958 32.9709 19.958 31.9254V19.3798H29.5166V31.9254C29.5166 32.9709 30.2633 33.7176 31.3088 33.7176H34.8933C35.8641 33.7176 36.6855 32.9709 36.6855 31.9254V2.05485C36.6855 1.08406 35.8641 0.26262 34.8933 0.26262ZM46.2441 14.6005V6.83414C46.2441 5.86335 45.4226 5.04191 44.4519 5.04191H40.8674C39.8219 5.04191 39.0752 5.86335 39.0752 6.83414V27.1461C39.0752 28.1916 39.8219 28.9384 40.8674 28.9384H44.4519C45.4226 28.9384 46.2441 28.1916 46.2441 27.1461V19.3798C47.5136 19.3798 48.6337 18.3343 48.6337 16.9901C48.6337 15.7206 47.5136 14.6005 46.2441 14.6005Z" fill="white"/>
</svg>
