<svg width="27" height="27" viewBox="0 0 27 27" fill="none" xmlns="http://www.w3.org/2000/svg">
<path d="M13.3001 6.87342C9.52129 6.87342 6.51004 9.94372 6.51004 13.6635C6.51004 17.4423 9.52129 20.4536 13.3001 20.4536C17.0199 20.4536 20.0902 17.4423 20.0902 13.6635C20.0902 9.94372 17.0199 6.87342 13.3001 6.87342ZM13.3001 18.0918C10.8793 18.0918 8.87181 16.1434 8.87181 13.6635C8.87181 11.2427 10.8203 9.29424 13.3001 9.29424C15.7209 9.29424 17.6694 11.2427 17.6694 13.6635C17.6694 16.1434 15.7209 18.0918 13.3001 18.0918ZM21.9206 6.63725C21.9206 5.75158 21.212 5.04305 20.3264 5.04305C19.4407 5.04305 18.7322 5.75158 18.7322 6.63725C18.7322 7.52291 19.4407 8.23144 20.3264 8.23144C21.212 8.23144 21.9206 7.52291 21.9206 6.63725ZM26.4079 8.23144C26.2899 6.10585 25.8175 4.21643 24.2823 2.68129C22.7472 1.14614 20.8578 0.673782 18.7322 0.555693C16.5476 0.437605 9.99365 0.437605 7.80901 0.555693C5.68342 0.673782 3.85305 1.14614 2.25885 2.68129C0.723705 4.21643 0.251351 6.10585 0.133263 8.23144C0.0151745 10.4161 0.0151745 16.97 0.133263 19.1546C0.251351 21.2802 0.723705 23.1106 2.25885 24.7048C3.85305 26.2399 5.68342 26.7123 7.80901 26.8304C9.99365 26.9485 16.5476 26.9485 18.7322 26.8304C20.8578 26.7123 22.7472 26.2399 24.2823 24.7048C25.8175 23.1106 26.2899 21.2802 26.4079 19.1546C26.526 16.97 26.526 10.4161 26.4079 8.23144ZM23.5738 21.4573C23.1605 22.6382 22.2158 23.5239 21.094 23.9962C19.3226 24.7048 15.1895 24.5276 13.3001 24.5276C11.3517 24.5276 7.21857 24.7048 5.50629 23.9962C4.3254 23.5239 3.43974 22.6382 2.96739 21.4573C2.25885 19.7451 2.43599 15.612 2.43599 13.6635C2.43599 11.7741 2.25885 7.641 2.96739 5.86967C3.43974 4.74783 4.3254 3.86217 5.50629 3.38982C7.21857 2.68129 11.3517 2.85842 13.3001 2.85842C15.1895 2.85842 19.3226 2.68129 21.094 3.38982C22.2158 3.80313 23.1015 4.74783 23.5738 5.86967C24.2823 7.641 24.1052 11.7741 24.1052 13.6635C24.1052 15.612 24.2823 19.7451 23.5738 21.4573Z" fill="#F18A00"/>
</svg>
