<svg width="35" height="39" viewBox="0 0 35 39" fill="none" xmlns="http://www.w3.org/2000/svg">
<path d="M3.1604 15.0855C5.17667 15.0855 6.9689 14.264 8.31307 12.9199C9.43322 16.9524 13.0924 19.8648 17.4983 19.8648C22.7256 19.8648 26.9822 15.6082 26.9822 10.3062C26.9822 5.07884 22.6509 0.747609 17.4983 0.747609C13.6898 0.747609 10.4787 2.9879 8.91049 6.12431C7.64099 4.33208 5.55005 3.13725 3.1604 3.13725C3.1604 5.67625 4.4299 7.84187 6.37149 9.11137C4.4299 10.4555 3.1604 12.6212 3.1604 15.0855ZM13.9138 7.91654H21.0081C22.3522 7.91654 23.4724 9.03669 23.4724 10.3062H11.5242C11.5242 9.03669 12.5696 7.91654 13.9138 7.91654ZM23.5471 23.6733L17.4983 31.813L11.3748 23.6733C5.32602 24.7934 0.770758 30.0954 0.770758 36.4429C0.770758 37.8618 1.8909 38.9819 3.30976 38.9819H31.6121C33.031 38.9819 34.1511 37.8618 34.1511 36.4429C34.2258 30.0954 29.5958 24.7934 23.5471 23.6733Z" fill="white"/>
</svg>
