<svg width="11" height="9" viewBox="0 0 11 9" fill="none" xmlns="http://www.w3.org/2000/svg">
<path d="M8.49251 7.83185C9.54124 7.83185 10.3921 6.98099 10.3921 5.93227V2.1331C10.3921 1.08437 9.54124 0.233516 8.49251 0.233516H6.83038C6.69187 0.233516 6.59293 0.35224 6.59293 0.470964V1.26246C6.59293 1.40097 6.69187 1.4999 6.83038 1.4999H8.49251C8.8289 1.4999 9.12571 1.79671 9.12571 2.1331V5.93227C9.12571 6.28844 8.8289 6.56546 8.49251 6.56546H6.83038C6.69187 6.56546 6.59293 6.68418 6.59293 6.80291V7.5944C6.59293 7.73291 6.69187 7.83185 6.83038 7.83185H8.49251ZM7.56251 3.8546L4.23824 0.530326C3.94143 0.233516 3.42696 0.451177 3.42696 0.866711V2.76629H0.735882C0.45886 2.76629 0.260986 2.98395 0.260986 3.24119V5.14077C0.260986 5.41779 0.45886 5.61567 0.735882 5.61567H3.42696V7.51525C3.42696 7.95057 3.94143 8.14845 4.23824 7.85164L7.56251 4.52737C7.74059 4.34928 7.74059 4.05247 7.56251 3.8546Z" fill="white"/>
</svg>
