<svg width="44" height="27" viewBox="0 0 44 27" fill="none" xmlns="http://www.w3.org/2000/svg">
<path d="M14.8481 17.6441C19.5527 17.6441 18.8807 14.7317 21.9424 14.657C25.1535 14.7317 24.332 17.6441 29.1113 17.6441C32.0237 17.6441 33.2932 16.2999 33.7413 15.8518L23.2866 7.18936C23.5106 7.04001 25.6762 5.77051 28.8873 5.77051C29.8581 5.77051 30.7542 5.91986 31.725 6.14389L34.5627 6.7413C34.7867 6.81598 34.9361 6.81598 35.1601 6.81598C36.2803 6.81598 37.4751 5.84519 37.4751 4.42633C37.4751 3.38086 36.7283 2.33539 35.6829 2.11137L32.7705 1.43928C31.501 1.14057 30.2315 0.99122 28.8873 0.99122C19.9261 0.99122 15.6696 7.41339 15.5949 7.56274L13.8773 9.72836C12.3091 11.8193 11.4877 14.2089 11.3383 16.7479C12.2345 17.3454 13.504 17.6441 14.8481 17.6441ZM43.5239 23.3941C43.5239 22.274 42.7024 21.3032 41.5076 21.0792C37.9231 20.4071 38.1472 18.9136 36.3549 18.9136C34.488 18.9136 33.9653 21.2285 29.1113 21.2285C25.5269 21.2285 23.7346 19.5856 23.66 19.5856C23.2119 19.1376 22.6145 18.9136 22.0171 18.9136C20.1502 18.9136 19.6274 21.2285 14.7735 21.2285C11.189 21.2285 9.39676 19.5856 9.32208 19.5856C8.87402 19.1376 8.27661 18.9136 7.6792 18.9136C7.08179 18.9136 6.4097 19.1376 5.96164 19.511C3.79603 21.5272 0.435591 20.4818 0.435591 23.4688C0.435591 24.6636 1.40638 25.8585 2.82524 25.8585C3.572 25.8585 5.81229 25.2611 7.60453 24.2156C9.09805 25.037 11.4877 26.0078 14.8481 26.0078C18.1339 26.0078 20.5235 24.9623 22.0171 24.1409C23.4359 24.9623 25.8256 26.0078 29.186 26.0078C32.4718 26.0078 34.8614 24.9623 36.3549 24.1409C38.1472 25.1864 40.3875 25.7838 41.1342 25.7838C42.5531 25.8585 43.5239 24.6636 43.5239 23.3941ZM7.60453 10.4751C10.2182 10.4751 12.3838 8.38418 12.3838 5.69583C12.3838 3.08216 10.2182 0.916543 7.60453 0.916543C4.91617 0.916543 2.82524 3.08216 2.82524 5.69583C2.82524 8.38418 4.99085 10.4751 7.60453 10.4751Z" fill="white"/>
</svg>
