<svg width="27" height="27" viewBox="0 0 27 27" fill="none" xmlns="http://www.w3.org/2000/svg">
<path d="M22.4368 4.33452C20.016 1.85467 16.7095 0.437605 13.1669 0.437605C5.96347 0.437605 0.0590442 6.34203 0.0590442 13.5454C0.0590442 15.9072 0.708531 18.1509 1.83037 20.0993L0 26.8894L6.90817 25.1181C8.85663 26.1218 10.9822 26.7123 13.1669 26.7123C20.4293 26.7123 26.4518 20.8079 26.4518 13.6045C26.4518 10.0618 24.9167 6.81438 22.4368 4.33452ZM13.1669 24.4686C11.2184 24.4686 9.32899 23.9372 7.6167 22.9335L7.26244 22.6973L3.12934 23.8191L4.25118 19.8041L3.95596 19.3908C2.89317 17.6195 2.30272 15.612 2.30272 13.5454C2.30272 7.58196 7.20339 2.68129 13.2259 2.68129C16.1191 2.68129 18.8351 3.80313 20.9017 5.86967C22.9682 7.93622 24.2081 10.6523 24.2081 13.6045C24.2081 19.5679 19.1894 24.4686 13.1669 24.4686ZM19.1894 16.3205C18.8351 16.1434 17.2409 15.3758 16.9457 15.2577C16.6505 15.1396 16.4143 15.0806 16.1781 15.4348C16.001 15.7301 15.3515 16.4976 15.1744 16.7338C14.9382 16.9109 14.7611 16.97 14.4658 16.7929C12.5174 15.8481 11.2774 15.0806 9.97847 12.8959C9.62421 12.3055 10.3327 12.3645 10.9232 11.1246C11.0413 10.8884 10.9822 10.7113 10.9232 10.5342C10.8641 10.357 10.1556 8.76284 9.91943 8.11335C9.62421 7.46387 9.38803 7.52291 9.15185 7.52291C8.97472 7.52291 8.73854 7.52291 8.56141 7.52291C8.32523 7.52291 7.97097 7.58196 7.67575 7.93622C7.38053 8.29049 6.55391 9.05806 6.55391 10.6523C6.55391 12.3055 7.67575 13.8406 7.85288 14.0768C8.03001 14.254 10.1556 17.5604 13.4621 18.9775C15.5286 19.9222 16.3552 19.9812 17.418 19.8041C18.0085 19.7451 19.3075 19.0365 19.6027 18.269C19.8979 17.5014 19.8979 16.8519 19.7798 16.7338C19.7208 16.5567 19.4846 16.4976 19.1894 16.3205Z" fill="#F18A00"/>
</svg>
