<svg width="39" height="40" viewBox="0 0 39 40" fill="none" xmlns="http://www.w3.org/2000/svg">
<path d="M19.2593 0.872975C8.65521 0.872975 0.142099 9.46076 0.142099 19.9901C0.142099 30.5942 8.65521 39.1073 19.2593 39.1073C29.7886 39.1073 38.3764 30.5942 38.3764 19.9901C38.3764 9.46076 29.7886 0.872975 19.2593 0.872975ZM19.2593 6.84709C20.9021 6.84709 22.2463 8.19126 22.2463 9.83414C22.2463 11.5517 20.9021 12.8212 19.2593 12.8212C17.5417 12.8212 16.2722 11.5517 16.2722 9.83414C16.2722 8.19126 17.5417 6.84709 19.2593 6.84709ZM28.0711 17.0031L23.6652 18.1979C23.3665 18.3473 23.0678 18.3473 22.8437 18.4219V23.0519L25.084 29.6234C25.4574 30.5195 24.9347 31.565 23.9639 31.8637C23.8145 31.9384 23.5905 31.9384 23.4411 31.9384C22.6944 31.9384 21.9476 31.4903 21.7236 30.7435L19.782 25.5162C19.558 24.9935 18.8859 24.9935 18.6618 25.5162L16.7203 30.7435C16.4962 31.4903 15.7495 31.9384 15.0774 31.9384C14.8534 31.9384 14.6293 31.9384 14.48 31.8637C13.5092 31.565 12.9864 30.5195 13.3598 29.6234L15.6748 23.0519V18.4219C15.3761 18.3473 15.0774 18.3473 14.7787 18.1979L10.3728 17.0031C9.40197 16.7044 8.87924 15.7336 9.10327 14.7628C9.40197 13.792 10.3728 13.2693 11.3436 13.4933L15.7495 14.7628C18.0644 15.4349 20.4541 15.4349 22.6944 14.7628L27.1003 13.4933C28.0711 13.2693 29.0419 13.792 29.3406 14.7628C29.5646 15.7336 29.0419 16.7044 28.0711 17.0031Z" fill="white"/>
</svg>
